<svg id="Layer_1" data-name="Layer 1" xmlns="http://www.w3.org/2000/svg" viewBox="0 0 498.44 570.97"><defs><style>.cls-1{fill:#010101;}.cls-2{fill-rule:evenodd;}</style></defs><path class="cls-1" d="M556,351.38h0a21.59,21.59,0,0,0-21.07-2.74L482.1,370.25A21.49,21.49,0,0,0,498.37,410L513.2,404a172,172,0,0,1-141.91,114.6V258.75h43.32a21.49,21.49,0,1,0,0-43H371.29V190.26a64.71,64.71,0,1,0-43,0v25.51H285a21.49,21.49,0,1,0,0,43h43.32V518.58A172,172,0,0,1,186.39,404l14.81,6a21.49,21.49,0,1,0,16.28-39.78l-52.83-21.62a21.5,21.5,0,0,0-29.5,22.27,216,216,0,0,0,429.28,0A21.58,21.58,0,0,0,556,351.38ZM349.79,150.94a21.72,21.72,0,1,1,21.72-21.71A21.74,21.74,0,0,1,349.79,150.94Z" transform="translate(-100.78 -64.52)"/><path class="cls-2" d="M482.21,522.75c-31.68,18.62-63.66,40.71-132.18,40.71s-98.5-22.09-130.17-40.71c-26.13-15.32-55.2-27.84-96.25-31.48-12.58-1.1-22.83-11.18-22.83-23.76s10.28-22.93,22.83-22C177.68,449.58,209,467.94,237,484.43H237c30.54,17.92,56.91,33.37,113,33.37s82.5-15.45,113-33.4c28-16.43,59.28-34.78,113.35-38.89,12.58-1,22.83,9.41,22.83,22s-10.28,22.66-22.83,23.76c-41.12,3.64-68.15,16.16-94.25,31.48Z" transform="translate(-100.78 -64.52)"/><path class="cls-2" d="M599.21,539.53c0-12.58-10.24-23-22.82-22C522.32,521.64,491,540,463,556.42c-30.54,18-57,33.41-113,33.41s-82.44-15.46-113-33.38H237c-28-16.49-59.27-34.84-113.34-38.92-12.55-.93-22.83,9.42-22.83,22s10.25,22.66,22.83,23.76c41.05,3.64,70.11,16.16,96.25,31.48,9.83,5.78,19.5,11.9,30.21,17.58,1.14.61,2.29,1.2,3.45,1.8s2.36,1.19,3.56,1.78a182.64,182.64,0,0,0,52.74,16.59q4.92.78,10.2,1.38h0q5.55.61,11.52,1l3,.17q7.4.39,15.47.4c5.38,0,10.54-.14,15.49-.39l3-.18q6-.39,11.59-1h0c3.53-.39,6.94-.84,10.25-1.36a191.77,191.77,0,0,0,53.35-16.32h0l3.62-1.75c1.18-.58,2.34-1.17,3.48-1.76,11.26-5.79,21.33-12,31.37-17.94h-.06c26.1-15.32,53.13-27.84,94.25-31.48C588.93,562.19,599.21,552.11,599.21,539.53Z" transform="translate(-100.78 -64.52)"/></svg>