<?xml version="1.0" encoding="utf-8"?>
<!-- Generator: Adobe Illustrator 25.2.1, SVG Export Plug-In . SVG Version: 6.00 Build 0)  -->
<svg version="1.1" id="Layer_1" xmlns="http://www.w3.org/2000/svg" xmlns:xlink="http://www.w3.org/1999/xlink" x="0px" y="0px"
	 viewBox="0 0 500 500" style="enable-background:new 0 0 500 500;" xml:space="preserve">
<style type="text/css">
	.st0{fill-rule:evenodd;clip-rule:evenodd;fill:#FFFFFF;}
</style>
<path class="st0" d="M167.36,416.88c-20.54,12.08-43.52,25.56-83.22,28.55c-9.21,0.69-16.76-6.89-16.76-16.15
	c0-9.26,7.52-16.66,16.76-17.47c30.14-2.67,47.07-12.6,66.26-23.84c0,0,0.02-0.02,0.05-0.02c2.55-1.49,4.24-4.09,4.56-7.01
	l16.52-147.08c0.17-1.42-0.96-2.65-2.38-2.65h-15.27c-3.92,0-7.11-3.19-7.11-7.11V193c0-3.92,3.19-7.11,7.11-7.11h18.18
	c1.32,0,2.4-1.05,2.4-2.4v-60.21c0-1.32-1.05-2.38-2.38-2.38H153.9c-3.9,0-7.11-3.19-7.11-7.11v-10.24c0-5.95,3.06-11.49,8.09-14.68
	l80.03-50.85c0.71-0.44,1.1-1.2,1.1-2.01V14.36c0-7.94,6.42-14.36,14.36-14.36h2.4c7.94,0,14.36,6.42,14.36,14.36v21.66
	c0,0.83,0.42,1.59,1.13,2.03l81.23,50.87c5.1,3.19,8.18,8.75,8.18,14.75v10.17c0,3.92-3.19,7.11-7.11,7.11h-18.21
	c-1.32,0-2.4,1.05-2.4,2.4v60.18c0,1.32,1.05,2.4,2.4,2.4h18.18c3.92,0,7.11,3.19,7.11,7.11v31.1c0,3.92-3.19,7.11-7.11,7.11h-19.8
	c-1.4,0-2.5,1.2-2.38,2.6l12.89,144.29c0.27,3.01,1.98,5.71,4.61,7.25c1.52,0.88,3.01,1.76,4.48,2.65
	c19.16,11.25,36.07,21.17,66.26,23.84c9.21,0.81,16.76,8.21,16.76,17.45s-7.52,16.86-16.76,16.15
	c-39.7-3.01-62.68-16.49-83.22-28.55c-22.42-13.18-41.83-24.53-83-24.53c-41.17,0-60.53,11.35-82.95,24.53h-0.05L167.36,416.88z
	 M269.49,121.99c-1.32,0-2.4,1.05-2.4,2.4v59.79c0,1.32,1.05,2.4,2.4,2.4h26.32c1.32,0,2.4-1.05,2.4-2.4v-59.79
	c0-1.32-1.05-2.4-2.4-2.4H269.49z M208.5,121.99c-1.32,0-2.4,1.05-2.4,2.4v59.79c0,1.32,1.05,2.4,2.4,2.4h26.32
	c1.32,0,2.4-1.05,2.4-2.4v-59.79c0-1.32-1.05-2.4-2.4-2.4H208.5z M347.4,441.65c19.16,11.25,39.01,20.44,69.2,23.11
	c9.21,0.81,16.76,8.21,16.76,17.45c0,9.24-7.52,16.86-16.76,16.15c-39.7-3.01-62.68-16.49-83.22-28.55
	c-22.42-13.18-41.83-24.53-83-24.53c-41.17,0-60.53,11.35-82.95,24.51h-0.05c-20.54,12.1-43.52,25.58-83.22,28.57
	c-9.21,0.69-16.76-6.91-16.76-16.15c0-9.24,7.52-16.64,16.76-17.45c30.14-2.67,51.48-11.86,70.67-23.11
	c23.25-13.67,45.27-29.89,95.57-29.89c50.31,0,73.79,16.22,97.04,29.89H347.4z"/>
</svg>
