<svg id="Layer_1" data-name="Layer 1" xmlns="http://www.w3.org/2000/svg" viewBox="0 0 498.44 472.37"><defs><style>.cls-1{fill-rule:evenodd;}.cls-2{fill:#010101;}</style></defs><path class="cls-1" d="M482.14,508.89c26.1,15.32,53.13,27.84,94.25,31.48,12.55,1.1,22.83,11.18,22.83,23.76s-10.25,23-22.83,22C522.32,582,491,563.66,463,547.24c-30.54-18-57-33.41-113-33.41s-82.44,15.46-113,33.38H237c-28,16.49-59.28,34.84-113.35,38.91-12.55.94-22.83-9.41-22.83-22s10.25-22.66,22.83-23.76c41.05-3.64,70.12-16.16,96.25-31.48,31.67-18.62,61.65-40.72,130.17-40.72s100.5,22.1,132.18,40.72Z" transform="translate(-100.78 -113.81)"/><path class="cls-1" d="M599.21,492.1c0,12.58-10.24,23-22.82,22C522.32,510,491,491.63,463,475.21c-30.54-17.95-57-33.41-113-33.41s-82.44,15.46-113,33.38H237C209,491.67,177.68,510,123.61,514.1c-12.55.93-22.83-9.42-22.83-22s10.25-22.66,22.83-23.76c41.05-3.64,70.11-16.16,96.25-31.48,9.83-5.78,19.5-11.9,30.21-17.58,1.14-.61,2.29-1.2,3.45-1.8l3.56-1.78a182.64,182.64,0,0,1,52.74-16.59q4.92-.78,10.2-1.38h0q5.55-.62,11.52-1l3-.17q7.4-.39,15.47-.4c5.38,0,10.54.14,15.49.39l3,.18q6,.39,11.59,1h0c3.53.39,6.94.84,10.25,1.36a191.77,191.77,0,0,1,53.35,16.32h0l3.62,1.75c1.18.58,2.34,1.17,3.48,1.76,11.26,5.79,21.33,12,31.37,17.94h-.06c26.1,15.32,53.13,27.84,94.25,31.48C588.93,469.44,599.21,479.52,599.21,492.1Z" transform="translate(-100.78 -113.81)"/><path class="cls-2" d="M341.54,432.87a65.56,65.56,0,0,1-65.48-65.48c0-2.27.12-4.51.34-6.73l-46.76,12.53c-7.78,2.09-13.91,3.73-21.54,2.11a32.27,32.27,0,0,1-17.39-10.05,28.89,28.89,0,0,1-2.81-3.64L160.23,369c-7.76,2.08-13.9,3.72-21.53,2.1a32.25,32.25,0,0,1-17.4-10.05c-5.22-5.79-6.86-11.92-8.94-19.69l-8-29.74c-2.08-7.77-3.73-13.91-2.11-21.54a32.3,32.3,0,0,1,10-17.39c5.79-5.22,11.93-6.87,19.7-9l27.67-7.41a30,30,0,0,1,.61-4.56,32.26,32.26,0,0,1,10.05-17.39c5.79-5.22,11.93-6.87,19.7-8.95l254.3-68.14A65.21,65.21,0,0,1,459.11,138c11.69-10.52,26.13-14.39,52.35-21.42,7.77-2.08,13.91-3.72,21.54-2.1a32.23,32.23,0,0,1,17.4,10c5.22,5.79,6.86,11.93,8.94,19.7l30.73,114.69c2.09,7.77,3.73,13.91,2.1,21.55a32.21,32.21,0,0,1-10,17.38c-5.8,5.22-11.94,6.87-19.71,9h0c-26.22,7-40.67,10.89-56,7.63A65.07,65.07,0,0,1,484,305.05l-89.39,24a65.45,65.45,0,0,1-53,103.86Zm0-88A22.48,22.48,0,1,0,364,367.39,22.51,22.51,0,0,0,341.54,344.91Zm-116.73-5.17ZM218,314.57l4.31,16.08,234.59-62.86-6.15-22.93c-.26-1-.54-2-.81-3l-10.37-38.7L205,266l4.31,16.09c.13.46.25.91.37,1.38l8,29.73C217.74,313.65,217.86,314.11,218,314.57Zm-71-10.27,5.94,22.18,22.18-5.94-5.94-22.19ZM492,232.76c4.64,17.33,7.81,28.79,11.28,32.65a22.41,22.41,0,0,0,12,6.95c4.92,1,15.83-1.72,32.21-6.1L518.82,159.12c-16.38,4.4-27.21,7.47-30.94,10.83a22.26,22.26,0,0,0-6.94,12c-1.13,5.28,2.15,17.49,7.1,36ZM202.6,256.84h0ZM516.3,150Z" transform="translate(-100.78 -113.81)"/></svg>