<svg id="Layer_1" data-name="Layer 1" xmlns="http://www.w3.org/2000/svg" viewBox="0 0 498.44 629.04"><defs><style>.cls-1{fill-rule:evenodd;}</style></defs><path class="cls-1" d="M482.49,588.14c26.1,15.32,53.13,27.84,94.25,31.48,12.55,1.1,22.83,11.18,22.83,23.76s-10.24,23-22.83,22c-54.07-4.11-85.37-22.47-113.34-38.89-30.54-18-57-33.41-113-33.41s-82.43,15.46-113,33.38h-.07C209.34,643,178,661.3,124,665.38c-12.55.93-22.83-9.42-22.83-22s10.24-22.66,22.83-23.76c41.05-3.64,70.11-16.16,96.24-31.48,31.68-18.62,61.66-40.71,130.18-40.71s100.5,22.09,132.17,40.71Z" transform="translate(-101.14 -36.4)"/><path class="cls-1" d="M576.75,547.6c-41.12-3.64-68.15-16.16-94.25-31.48h.06c-10-5.9-20.11-12.15-31.37-17.94-1.14-.59-2.3-1.18-3.48-1.76l-1-.51A239.83,239.83,0,0,0,351,36.4h-.22a239.92,239.92,0,0,0-96,459.92l-.84.42c-1.16.6-2.31,1.19-3.45,1.8-10.71,5.68-20.38,11.8-30.21,17.58C194.08,531.44,165,544,124,547.6c-12.58,1.1-22.83,11.18-22.83,23.76s10.28,22.93,22.83,22c54.07-4.08,85.37-22.43,113.34-38.92h.07c30.54-17.92,56.91-33.38,113-33.38s82.5,15.46,113,33.41c28,16.42,59.28,34.78,113.35,38.89,12.58,1,22.82-9.42,22.82-22S589.29,548.7,576.75,547.6ZM350.41,77.18h.09A199.09,199.09,0,0,1,490.87,417.23c-37.64,37.42-87.89,58-141.53,58h-.24c-52.65-.06-102.29-20.86-139.76-58.55a197.62,197.62,0,0,1-58-140.44C151.49,166.46,240.78,77.18,350.41,77.18Z" transform="translate(-101.14 -36.4)"/><path d="M466.62,158.81q-17.19,10.13-34.36,20.24c-34.22,20.24-68.32,40.66-102.71,60.59a43.3,43.3,0,0,0-16.28,16.56C289.4,297,265.17,337.64,241.1,378.33c-3.15,5.32-6.22,10.68-9.31,16A202.72,202.72,0,0,0,250,384.48q64-37.91,128-75.92a15.31,15.31,0,0,0,5-5.2q38.76-65.22,77.34-130.54c2.82-4.78,5.57-9.59,8.94-15.4C467.7,158.25,467.14,158.5,466.62,158.81Zm-116.07,135A17.63,17.63,0,1,1,368,276.27,17.71,17.71,0,0,1,350.55,293.84Z" transform="translate(-101.14 -36.4)"/></svg>