<svg width="218" height="100" viewBox="0 0 218 100" fill="none" xmlns="http://www.w3.org/2000/svg">
<g clip-path="url(#clip0_1_1136)">
<mask id="mask0_1_1136" style="mask-type:luminance" maskUnits="userSpaceOnUse" x="75" y="40" width="119" height="20">
<path d="M193.128 40H75.7344V59.4588H193.128V40Z" fill="white"/>
</mask>
<g mask="url(#mask0_1_1136)">
<path d="M91.1408 59.1989H87.2381V51.0841H79.635V59.1989H75.7324V40.2617H79.635V47.9368H87.2381V40.2617H91.1408V59.1989Z" fill="white"/>
<path d="M125.026 52.2678H121.919V59.1989H118.017V40.2617H125.049C127.286 40.2617 129.01 40.7603 130.226 41.7548C131.439 42.7545 132.048 44.1606 132.048 45.981C132.048 47.2721 131.769 48.351 131.209 49.2126C130.648 50.0768 129.804 50.7619 128.665 51.2733L132.76 59.0123V59.1964H128.573L125.023 52.2653H125.029L125.026 52.2678ZM121.919 49.1078H125.067C126.044 49.1078 126.805 48.8598 127.345 48.3612C127.884 47.8627 128.151 47.1749 128.151 46.3006C128.151 45.4262 127.9 44.7052 127.393 44.1939C126.886 43.6825 126.106 43.4269 125.062 43.4269H121.927V49.1129L121.922 49.1078H121.919Z" fill="white"/>
<path d="M137.678 59.1989V40.2617H144.308C146.604 40.2617 148.347 40.7015 149.537 41.581C150.721 42.4605 151.318 43.7516 151.318 45.4492C151.318 46.3773 151.077 47.1954 150.604 47.9036C150.128 48.6118 149.465 49.1308 148.615 49.458C149.585 49.7009 150.353 50.1892 150.911 50.9281C151.471 51.6644 151.75 52.5669 151.75 53.6331C151.75 55.456 151.172 56.834 150.01 57.7672C148.848 58.7004 147.195 59.181 145.043 59.1964H137.683V59.2015L137.678 59.1989ZM141.58 48.195H144.467C146.435 48.1593 147.418 47.3769 147.418 45.8429C147.418 44.9839 147.169 44.3677 146.67 43.9893C146.171 43.6109 145.386 43.4218 144.311 43.4218H141.58V48.195ZM141.58 50.9511V56.0619H144.923C145.841 56.0619 146.56 55.842 147.075 55.4074C147.589 54.9677 147.85 54.3643 147.85 53.5947C147.85 51.8613 146.952 50.9818 145.158 50.9537H141.58V50.9511Z" fill="white"/>
<path d="M172.881 50.1578C172.881 52.0241 172.551 53.6578 171.896 55.0589C171.235 56.4651 170.294 57.5491 169.068 58.311C167.842 59.0729 166.435 59.4589 164.85 59.4589C163.266 59.4589 161.882 59.0831 160.648 58.3289C159.417 57.5747 158.463 56.4983 157.79 55.0972C157.114 53.6988 156.771 52.0855 156.764 50.2677V49.332C156.764 47.4656 157.099 45.8268 157.769 44.4104C158.44 42.9914 159.392 41.9049 160.618 41.1455C161.843 40.3862 163.246 40.0078 164.822 40.0078C166.399 40.0078 167.801 40.3862 169.027 41.1455C170.253 41.9049 171.205 42.9914 171.875 44.4104C172.546 45.8293 172.881 47.463 172.881 49.3217V50.168V50.1603V50.1578ZM168.927 49.2987C168.927 47.3122 168.571 45.8038 167.86 44.7709C167.149 43.7405 166.135 43.2241 164.817 43.2241C163.499 43.2241 162.496 43.7354 161.79 44.7555C161.078 45.7731 160.72 47.2687 160.712 49.2348V50.1578C160.712 52.0906 161.068 53.5888 161.78 54.6575C162.491 55.7236 163.512 56.2554 164.848 56.2554C166.184 56.2554 167.161 55.739 167.862 54.7137C168.566 53.686 168.922 52.1878 168.93 50.2191V49.2962V49.3013L168.927 49.2987Z" fill="white"/>
<path d="M185.388 52.2678H182.282V59.1989H178.379V40.2617H185.411C187.648 40.2617 189.373 40.7603 190.588 41.7548C191.801 42.7545 192.41 44.1606 192.41 45.981C192.41 47.2721 192.132 48.351 191.571 49.2126C191.013 50.0768 190.166 50.7619 189.027 51.2733L193.122 59.0123V59.1964H188.935L185.386 52.2653H185.391L185.388 52.2678ZM182.282 49.1078H185.429C186.407 49.1078 187.167 48.8598 187.707 48.3612C188.247 47.8627 188.513 47.1749 188.513 46.3006C188.513 45.4262 188.262 44.7052 187.753 44.1939C187.246 43.6825 186.466 43.4269 185.422 43.4269H182.287V49.1129L182.282 49.1078Z" fill="white"/>
<path d="M106.506 40.2617H102.892L95.8418 59.1989H99.9901L104.696 45.0478L107.076 52.1349L109.443 59.1989H113.589L106.503 40.2617H106.506Z" fill="white"/>
</g>
<path fill-rule="evenodd" clip-rule="evenodd" d="M35.1932 67.4677C33.0428 68.7297 30.6342 70.1419 26.4787 70.4549L26.4712 70.4499C25.5063 70.5225 24.7168 69.7287 24.7168 68.7597C24.7168 67.7907 25.5063 67.017 26.4712 66.9318C29.6267 66.6539 31.4012 65.6147 33.4087 64.4379H33.4137C33.6819 64.2827 33.8574 64.0097 33.8924 63.7042L35.6218 48.3175C35.6394 48.1698 35.5241 48.0396 35.3737 48.0396H33.7746C33.3661 48.0396 33.0328 47.7091 33.0328 47.2984V44.0433C33.0328 43.6352 33.3636 43.3022 33.7746 43.3022H35.6769C35.8148 43.3022 35.9276 43.1895 35.9276 43.0518V36.7519C35.9276 36.6141 35.8173 36.504 35.6795 36.504H33.7746C33.3661 36.504 33.0328 36.1709 33.0328 35.7628V34.6911C33.0328 34.0651 33.3536 33.4867 33.8799 33.1537L42.2636 27.8328C42.3362 27.7878 42.3789 27.7076 42.3789 27.6225V25.3539C42.3789 24.5226 43.0531 23.8516 43.8827 23.8516H44.1333C44.9654 23.8516 45.6371 24.5251 45.6371 25.3539V27.62C45.6371 27.7076 45.6822 27.7878 45.7549 27.8328L54.2638 33.1562C54.7977 33.4892 55.121 34.0701 55.121 34.6986V35.7628C55.121 36.1709 54.7902 36.504 54.3791 36.504H52.4718C52.334 36.504 52.2212 36.6166 52.2212 36.7544V43.0518C52.2212 43.1895 52.334 43.3022 52.4718 43.3022H54.3741C54.7826 43.3022 55.116 43.6327 55.116 44.0433V47.2984C55.116 47.7066 54.7852 48.0396 54.3741 48.0396H52.3014C52.1535 48.0396 52.0382 48.1673 52.0508 48.3125L53.3992 63.4088C53.4292 63.7243 53.6097 64.0072 53.8829 64.1675C54.0408 64.2601 54.1987 64.3528 54.3541 64.4429L54.3556 64.4438C56.3625 65.6203 58.1344 66.659 61.2941 66.9368C62.259 67.022 63.0485 67.7957 63.0485 68.7647C63.0485 69.7337 62.2615 70.5275 61.2941 70.4549C57.1386 70.1419 54.73 68.7322 52.5796 67.4677C50.2287 66.0905 47.8652 64.9011 43.8852 64.9011C39.9051 64.9011 37.5492 66.088 35.1982 67.4677H35.1932ZM45.8927 36.6141C45.7549 36.6141 45.6421 36.7268 45.6421 36.8645V43.1219C45.6421 43.2596 45.7549 43.3723 45.8927 43.3723H48.6472C48.785 43.3723 48.8978 43.2596 48.8978 43.1219V36.8645C48.8978 36.7268 48.785 36.6141 48.6472 36.6141H45.8927ZM39.5041 36.6141C39.3663 36.6141 39.2535 36.7268 39.2535 36.8645V43.1219C39.2535 43.2596 39.3663 43.3723 39.5041 43.3723H42.2586C42.3964 43.3723 42.5092 43.2596 42.5092 43.1219V36.8645C42.5092 36.7268 42.3964 36.6141 42.2586 36.6141H39.5041ZM54.1177 70.3412C55.9623 71.4104 57.2355 71.8962 61.2983 72.4746V72.4721C62.2582 72.6098 63.0527 73.331 63.0527 74.3C63.0527 75.269 62.2657 76.0627 61.2983 75.9901C57.1428 75.6771 54.7342 74.5203 52.5838 73.2558C52.3331 73.1087 52.0861 72.9598 51.8395 72.8113C49.7735 71.5663 47.7406 70.3412 43.8894 70.3412C40.1847 70.3412 38.1885 71.5118 36.1907 72.6833C35.8638 72.875 35.5369 73.0667 35.2024 73.2533C33.2074 74.3676 30.6384 75.6796 26.4829 75.9926C25.518 76.0653 24.7285 75.2715 24.7285 74.3025C24.7285 73.3335 25.518 72.5597 26.4829 72.4746C29.6384 72.1967 31.4279 71.6658 33.4355 70.489C33.5706 70.4095 33.7093 70.3275 33.8516 70.2433C36.275 68.8096 39.73 66.7656 43.8894 66.7656C48.1189 66.7656 51.1257 68.5599 53.3579 69.892C53.6217 70.0495 53.8747 70.2004 54.1177 70.3412Z" fill="white"/>
</g>
<defs>
<clipPath id="clip0_1_1136">
<rect width="168.755" height="52" fill="white" transform="translate(24.5 24)"/>
</clipPath>
</defs>
</svg>
