<svg id="Layer_1" data-name="Layer 1" xmlns="http://www.w3.org/2000/svg" viewBox="0 0 498.44 463.51"><defs><style>.cls-1{fill-rule:evenodd;}</style></defs><path class="cls-1" d="M599.22,413.77c0,12.59-10.28,22.66-22.83,23.77a213.84,213.84,0,0,0-39.21,7c-21.07,5.92-38.25,14.62-55,24.48h.07l-2.15,1.27c-31,18.34-63.06,39.45-130,39.45-.91,0-1.81,0-2.7,0-65-.55-94.79-21.31-125.24-39.39L219.86,469a264.73,264.73,0,0,0-25.7-13.38q-5.24-2.36-10.73-4.48h0c-4.81-1.86-9.79-3.58-15-5.14q-2.85-.86-5.77-1.65a224.84,224.84,0,0,0-39.06-6.81c-12.58-1.11-22.83-11.18-22.83-23.77s10.28-22.93,22.83-22a249.21,249.21,0,0,1,26.91,3.46l.29.05c3.83.72,7.51,1.51,11.08,2.37a210.36,210.36,0,0,1,24.9,7.65l1.85.71c3.26,1.26,6.4,2.57,9.46,3.93l.16.07c9.13,4,17.44,8.44,25.29,12.88,1.58.89,3.13,1.79,4.68,2.68q4.1,2.37,8.06,4.71l.67.4H237l4.34,2.54,2.92,1.69c6.6,3.83,13.13,7.5,20,10.85,4.23,2.09,8.58,4.05,13.13,5.86,15.46,6.18,33.2,10.6,56.6,12,5.07.3,10.4.46,16,.46a247.14,247.14,0,0,0,30-1.7,167.77,167.77,0,0,0,42.65-10.72c4.54-1.81,8.89-3.77,13.13-5.86,7.82-3.84,15.27-8.09,22.87-12.54l4.41-2.59,1.47-.86q3.57-2.1,7.25-4.23l4.67-2.67a265.31,265.31,0,0,1,34.91-16.84c.61-.25,1.23-.48,1.86-.72a210.89,210.89,0,0,1,36-10l.29-.06a246.75,246.75,0,0,1,26.92-3.48C589,390.81,599.22,401.19,599.22,413.77Z" transform="translate(-100.78 -118.24)"/><path class="cls-1" d="M599.22,485.81c0,12.58-10.28,22.66-22.83,23.76-41.12,3.64-68.15,16.16-94.25,31.48h.07c-31.68,18.62-63.66,40.71-132.18,40.71s-98.5-22.09-130.17-40.71c-26.13-15.32-55.2-27.84-96.25-31.48-12.58-1.1-22.83-11.18-22.83-23.76s10.28-22.93,22.83-22C177.68,467.88,209,486.24,237,502.73H237c14.84,8.7,28.69,16.82,45.44,22.88a167,167,0,0,0,34.12,8.33A240.2,240.2,0,0,0,350,536.1c56.07,0,82.5-15.45,113-33.4,28-16.43,59.28-34.78,113.35-38.89C589,462.84,599.22,473.22,599.22,485.81Z" transform="translate(-100.78 -118.24)"/><path d="M539.46,176.24l-.12-.24c-.31-.58-.63-1.21-1-1.9a102.1,102.1,0,0,0-18.77-25.88l0,0,0,0a102.56,102.56,0,0,0-25.88-18.78,83,83,0,0,0-15-5.83l-6.88-1.94-3.31-.94a52.06,52.06,0,0,0-13.36-2l-18.83-.26-7.89-.11-5.74-.06c-6.71-.05-14-.05-22.09-.05H299.45c-8.12,0-15.38,0-22.09.05l-5.73.06-7.9.11-18.84.26a52.06,52.06,0,0,0-13.36,2l-3.3.94-6.88,1.95a81.26,81.26,0,0,0-15,5.83,101.71,101.71,0,0,0-44.71,44.71c-.38.75-.74,1.43-1.07,2.08-10.08,19.41-10.08,27.74-10.08,67.72V372.19c0,4.17,0,8,0,11.62,0,4.15.11,7.95.29,11.48.57,11.64,2.17,20.37,6.59,29a63.13,63.13,0,0,0,26,26.82h0c.55.29,1.1.59,1.66.87a52.42,52.42,0,0,0,9.07,3.61c8.3,2.47,17.31,3.1,27.93,3.26,2,0,4,.05,6.14.06h13.09l22.91,0,13.13,0V286.42h22.32v27.44a11.45,11.45,0,0,0,11.44,11.44h77.76a11.46,11.46,0,0,0,11.44-11.44V286.42h22.31V459l13.13,0,22.91,0h13.09c2.88,0,5.64,0,8.3-.1,13.57-.3,24.5-1.55,34.82-6.81A63.26,63.26,0,0,0,531,440.38a61.83,61.83,0,0,0,6.23-7.28,63.31,63.31,0,0,0,5.42-8.78c4.41-8.66,6-17.37,6.58-29,.17-3.53.25-7.34.29-11.49,0-3.6,0-7.46,0-11.64V243.91C549.51,203.94,549.51,195.62,539.46,176.24Zm-298.1,257L237,430.69H237l-.67-.4q-4-2.34-8.06-4.71c-1.55-.89-3.1-1.79-4.68-2.68-11.61-.17-17.88-.79-22.09-2.94a27.3,27.3,0,0,1-12-12,14.47,14.47,0,0,1-.83-2c-1-2.91-1.57-6.73-1.85-12.14s-.31-12.42-.31-21.69V286.42h54.88Zm0-182.81H186.48v-6.51c0-38,0-39.52,6-51.1l1.22-2.36a65.9,65.9,0,0,1,29-29,43.46,43.46,0,0,1,5.54-2.34c1-.33,1.93-.64,3-.93l10.18-2.89Zm123,38v.42c0-.12-.06-.23-.08-.35a21.79,21.79,0,1,1,.08-.07Zm58.31-38H400.32V236.11a11.46,11.46,0,0,0-11.44-11.44H311.12a11.39,11.39,0,0,0-7.2,2.56,54.73,54.73,0,0,0-3.85,5.93,11.05,11.05,0,0,0-.39,3v14.31H277.36V154.3c6.66-.06,13.94-.06,22.09-.06H400.54c8.16,0,15.43,0,22.09.06Zm90.88,121.77c0,9.28,0,16.3-.31,21.72s-.82,9.24-1.86,12.15a17.69,17.69,0,0,1-.82,1.91,27.25,27.25,0,0,1-12,12c-4.21,2.15-10.48,2.77-22.1,2.94l-4.67,2.67q-3.67,2.13-7.25,4.23l-1.47.86-4.41,2.59V286.42h54.88Zm0-121.77H458.63V155.31l10.19,2.89c1,.29,2,.6,2.94.92a44.11,44.11,0,0,1,5.54,2.35,65.9,65.9,0,0,1,29,29c.44.86.84,1.64,1.22,2.36,6,11.59,6,13.07,6,51.1Z" transform="translate(-100.78 -118.24)"/><path d="M300.07,233.16a54.73,54.73,0,0,1,3.85-5.93A11.41,11.41,0,0,0,300.07,233.16Zm0,0a54.73,54.73,0,0,1,3.85-5.93A11.41,11.41,0,0,0,300.07,233.16Zm0,0a54.73,54.73,0,0,1,3.85-5.93A11.41,11.41,0,0,0,300.07,233.16Zm0,0a54.73,54.73,0,0,1,3.85-5.93A11.41,11.41,0,0,0,300.07,233.16Zm0,0a54.73,54.73,0,0,1,3.85-5.93A11.41,11.41,0,0,0,300.07,233.16Zm0,0a54.73,54.73,0,0,1,3.85-5.93A11.41,11.41,0,0,0,300.07,233.16Zm0,0a54.73,54.73,0,0,1,3.85-5.93A11.41,11.41,0,0,0,300.07,233.16Zm0,0a54.73,54.73,0,0,1,3.85-5.93A11.41,11.41,0,0,0,300.07,233.16Zm0,0a54.73,54.73,0,0,1,3.85-5.93A11.41,11.41,0,0,0,300.07,233.16Zm0,0a54.73,54.73,0,0,1,3.85-5.93A11.41,11.41,0,0,0,300.07,233.16Zm0,0a54.73,54.73,0,0,1,3.85-5.93A11.41,11.41,0,0,0,300.07,233.16ZM364.33,277v0l.17-.12Zm-64.26-43.88a54.73,54.73,0,0,1,3.85-5.93A11.41,11.41,0,0,0,300.07,233.16Zm0,0a54.73,54.73,0,0,1,3.85-5.93A11.41,11.41,0,0,0,300.07,233.16Zm0,0a54.73,54.73,0,0,1,3.85-5.93A11.41,11.41,0,0,0,300.07,233.16Zm0,0a54.73,54.73,0,0,1,3.85-5.93A11.41,11.41,0,0,0,300.07,233.16Zm0,0a54.73,54.73,0,0,1,3.85-5.93A11.41,11.41,0,0,0,300.07,233.16Zm0,0a54.73,54.73,0,0,1,3.85-5.93A11.41,11.41,0,0,0,300.07,233.16Zm0,0a54.73,54.73,0,0,1,3.85-5.93A11.41,11.41,0,0,0,300.07,233.16Zm0,0a54.73,54.73,0,0,1,3.85-5.93A11.41,11.41,0,0,0,300.07,233.16Zm0,0a54.73,54.73,0,0,1,3.85-5.93A11.41,11.41,0,0,0,300.07,233.16Zm0,0a54.73,54.73,0,0,1,3.85-5.93A11.41,11.41,0,0,0,300.07,233.16Zm0,0a54.73,54.73,0,0,1,3.85-5.93A11.41,11.41,0,0,0,300.07,233.16Zm0,0a54.73,54.73,0,0,1,3.85-5.93A11.41,11.41,0,0,0,300.07,233.16Zm0,0a54.73,54.73,0,0,1,3.85-5.93A11.41,11.41,0,0,0,300.07,233.16Zm0,0a54.73,54.73,0,0,1,3.85-5.93A11.41,11.41,0,0,0,300.07,233.16Zm0,0a54.73,54.73,0,0,1,3.85-5.93A11.41,11.41,0,0,0,300.07,233.16Zm0,0a54.73,54.73,0,0,1,3.85-5.93A11.41,11.41,0,0,0,300.07,233.16Z" transform="translate(-100.78 -118.24)"/><path d="M364.24,288.52c0,.12.05.23.08.35v-.42Zm0,0c0,.12.05.23.08.35v-.42Zm0,0c0,.12.05.23.08.35v-.42Zm0,0c0,.12.05.23.08.35v-.42Zm0,0c0,.12.05.23.08.35v-.42Zm0,0c0,.12.05.23.08.35v-.42Zm0,0c0,.12.05.23.08.35v-.42Z" transform="translate(-100.78 -118.24)"/></svg>