<svg id="Layer_1" data-name="Layer 1" xmlns="http://www.w3.org/2000/svg" viewBox="0 0 498.44 508.76"><defs><style>.cls-1{fill-rule:evenodd;}.cls-2{fill:#010101;}</style></defs><path class="cls-1" d="M576.39,414.41C522.32,418.51,491,436.87,463,453.29,438.52,467.71,416.66,480.51,380,485l58.89-85.39a94.36,94.36,0,0,0,15.19-71.11,57.5,57.5,0,0,1,9.25-43.28l26.18-38,5.44,3.75a19.64,19.64,0,0,0,27.31-5l5.1-7.39a19.63,19.63,0,0,0-5-27.3l-5.45-3.76-7,10.12a40.78,40.78,0,0,0,5-11.49l2,1.37L541.38,172a10.15,10.15,0,0,0-2.6-14.12L451.12,97.42A10.16,10.16,0,0,0,437,100l-24.51,35.53,2,1.37a40.61,40.61,0,0,0-9.13,9l7.15-10.38L407,131.78a19.64,19.64,0,0,0-27.31,5l-5.09,7.39a19.63,19.63,0,0,0,5,27.31l5.43,3.75-26.18,38a57.41,57.41,0,0,1-37.14,24l-.08,0a94.43,94.43,0,0,0-61,39.46L164.06,416.75a36.12,36.12,0,0,0-2.17,3.54,239.73,239.73,0,0,0-38.28-5.88c-12.55-.94-22.83,9.41-22.83,22s10.25,22.66,22.83,23.77a221.57,221.57,0,0,1,44.83,8.46c19.43,5.84,35.94,13.93,51.42,23,31.25,18.37,60.86,40.14,127.47,40.7.89,0,1.79,0,2.7,0,68.52,0,100.5-22.1,132.18-40.72h-.07c26.1-15.32,53.13-27.84,94.25-31.47,12.55-1.11,22.83-11.18,22.83-23.77S589,413.44,576.39,414.41ZM198.26,432.65a.39.39,0,0,0-.15-.06l.43-.35Zm.3-.43,92.69-134.39a57.49,57.49,0,0,1,37.15-24h.08a94.41,94.41,0,0,0,61-39.47l26.19-38,43.19,29.8-26.19,38h0a94.17,94.17,0,0,0-16.61,48,12.06,12.06,0,0,1-.17,6.94c0-2.32,0-4.64.17-6.94a12.11,12.11,0,0,0-2.19-4.34L399,289a12.12,12.12,0,0,0-17-2Zm135.4,54c-41.33-2.43-65-14.37-89.67-28.69L411.91,324.81a12.08,12.08,0,0,0,4-5.76,96.62,96.62,0,0,0,1.59,16.19,57.5,57.5,0,0,1-9.24,43.27Z" transform="translate(-100.78 -95.62)"/><path class="cls-1" d="M599.22,508.43c0,12.58-10.28,22.66-22.83,23.76-41.12,3.64-68.15,16.16-94.25,31.48h.07c-31.68,18.62-63.66,40.71-132.18,40.71s-98.5-22.09-130.17-40.71c-26.13-15.32-55.2-27.84-96.25-31.48-12.58-1.1-22.83-11.18-22.83-23.76s10.28-22.93,22.83-22C177.68,490.5,209,508.86,237,525.35H237c14.84,8.7,28.69,16.82,45.44,22.88a167,167,0,0,0,34.12,8.33A240.2,240.2,0,0,0,350,558.72c56.07,0,82.5-15.45,113-33.4,28-16.43,59.28-34.78,113.35-38.89C589,485.46,599.22,495.84,599.22,508.43Z" transform="translate(-100.78 -95.62)"/><g id="primary"><path class="cls-2" d="M198.11,432.59a.39.39,0,0,1,.15.06l.28-.41Zm218-120.49c-.15,2.3-.2,4.62-.17,6.94A12.06,12.06,0,0,0,416.08,312.1ZM282.46,548.23l2.78,1.91a40.87,40.87,0,0,0,30.69,6.55l.65-.13A167,167,0,0,1,282.46,548.23Z" transform="translate(-100.78 -95.62)"/></g><path class="cls-2" d="M414.47,136.91a40.61,40.61,0,0,0-9.13,9l7.15-10.38Z" transform="translate(-100.78 -95.62)"/><path class="cls-2" d="M516.87,207.54l-7,10.12a40.78,40.78,0,0,0,5-11.49Z" transform="translate(-100.78 -95.62)"/><path class="cls-2" d="M414.47,136.91a40.61,40.61,0,0,0-9.13,9l7.15-10.38Z" transform="translate(-100.78 -95.62)"/><path class="cls-2" d="M516.87,207.54l-7,10.12a40.78,40.78,0,0,0,5-11.49Z" transform="translate(-100.78 -95.62)"/><path class="cls-2" d="M198.54,432.24l-.28.41a.39.39,0,0,0-.15-.06Z" transform="translate(-100.78 -95.62)"/><path class="cls-2" d="M415.91,319c0-2.32,0-4.64.17-6.94A12.06,12.06,0,0,1,415.91,319Z" transform="translate(-100.78 -95.62)"/></svg>