<svg id="Layer_1" data-name="Layer 1" xmlns="http://www.w3.org/2000/svg" viewBox="0 0 498.44 581.89"><defs><style>.cls-1{fill-rule:evenodd;}.cls-2{fill:#010101;}</style></defs><path class="cls-1" d="M482.14,563.65c26.1,15.32,53.13,27.84,94.25,31.48,12.55,1.1,22.83,11.18,22.83,23.76s-10.25,23-22.83,22C522.32,636.78,491,618.42,463,602c-30.54-18-57-33.41-113-33.41S267.56,584.05,237,602H237c-28,16.49-59.28,34.84-113.35,38.91-12.55.94-22.83-9.41-22.83-22s10.25-22.66,22.83-23.76c41.05-3.64,70.12-16.16,96.25-31.48C251.53,545,281.51,522.93,350,522.93s100.5,22.1,132.18,40.72Z" transform="translate(-100.78 -59.05)"/><path class="cls-1" d="M599.21,546.86c0,12.58-10.24,23-22.82,22C522.32,564.75,491,546.39,463,530c-30.54-18-57-33.41-113-33.41S267.56,512,237,529.94H237c-28,16.49-59.27,34.84-113.34,38.92-12.55.93-22.83-9.42-22.83-22S111,524.2,123.61,523.1c41.05-3.64,70.11-16.16,96.25-31.48,9.83-5.78,19.5-11.9,30.21-17.58,1.14-.61,2.29-1.2,3.45-1.8l3.56-1.78a182.64,182.64,0,0,1,52.74-16.59q4.92-.78,10.2-1.38h0q5.55-.62,11.52-1l3-.17q7.4-.39,15.47-.4c5.38,0,10.54.14,15.49.39l3,.18q6,.39,11.59,1h0c3.53.39,6.94.84,10.25,1.36a191.77,191.77,0,0,1,53.35,16.32h0l3.62,1.75c1.18.58,2.34,1.17,3.48,1.76,11.26,5.79,21.33,12,31.37,17.94h-.06c26.1,15.32,53.13,27.84,94.25,31.48C588.93,524.2,599.21,534.28,599.21,546.86Z" transform="translate(-100.78 -59.05)"/><path class="cls-2" d="M373.83,487.91a181,181,0,0,0,86.09-35.64l31.79,31.78A24.09,24.09,0,0,0,525.78,450L494,418.19a181,181,0,0,0,35.64-86.09h45a24.1,24.1,0,1,0,0-48.19h-45A181,181,0,0,0,494,197.81L525.78,166A24.09,24.09,0,1,0,491.71,132l-31.79,31.78a181,181,0,0,0-86.09-35.64V83.15a24.1,24.1,0,1,0-48.19,0V128.1a181,181,0,0,0-86.09,35.64L207.76,132A24.09,24.09,0,0,0,173.69,166l31.78,31.78a181,181,0,0,0-35.64,86.1h-45a24.1,24.1,0,1,0,0,48.19h45a181,181,0,0,0,35.64,86.09L173.69,450a24.09,24.09,0,0,0,34.07,34.08l31.79-31.78a181,181,0,0,0,86.09,35.64m133.87-255.6a132.65,132.65,0,0,1,21.36,51.6H438a91.5,91.5,0,0,0-8.83-21.31ZM326.12,176.78v42.79a90.9,90.9,0,0,0-21.8,8.94L274,198.23A132.75,132.75,0,0,1,326.12,176.78ZM240,383.7a132.73,132.73,0,0,1-21.45-52.09h42.78a90.84,90.84,0,0,0,9,21.8Zm21.52-99.79H218.6A132.65,132.65,0,0,1,240,232.31l30.32,30.31A91.37,91.37,0,0,0,261.48,283.91Zm64.64,155.32A132.75,132.75,0,0,1,274,417.78l30.33-30.34a92.25,92.25,0,0,0,21.75,9Zm32.08-88.7a43.48,43.48,0,0,1-44.82-18.92,41.9,41.9,0,0,1-3.71-7,43.45,43.45,0,0,1,9.4-47.25,42.55,42.55,0,0,1,6.57-5.4l.48-.31a43.16,43.16,0,0,1,23.57-7,43.29,43.29,0,0,1,30.58,12.53l.13.14.15.14a44.22,44.22,0,0,1,5.26,6.43,43.41,43.41,0,0,1,7.29,24v0a43.2,43.2,0,0,1-7,23.61,43.78,43.78,0,0,1-12.73,12.74A43.18,43.18,0,0,1,358.2,350.53Zm15.15,88.7V396.45a90.76,90.76,0,0,0,21.78-9l30.3,30.31A132.75,132.75,0,0,1,373.35,439.23Zm21.78-210.7a90.82,90.82,0,0,0-21.78-8.92V176.78a132.75,132.75,0,0,1,52.08,21.45ZM459.51,383.7l-30.33-30.33a90.94,90.94,0,0,0,9-21.76H481A132.73,132.73,0,0,1,459.51,383.7Z" transform="translate(-100.78 -59.05)"/></svg>